Coordinates
version=1
nRows=9
nColumns=24
inDegrees=yes

Units are S.I. units (second, meters, Newtons, ...)
Angles are in degrees.

endheader
time	pelvis_tilt	pelvis_list	pelvis_rotation	pelvis_tx	pelvis_ty	pelvis_tz	hip_flexion_r	hip_adduction_r	hip_rotation_r	knee_angle_r	ankle_angle_r	subtalar_angle_r	mtp_angle_r	hip_flexion_l	hip_adduction_l	hip_rotation_l	knee_angle_l	ankle_angle_l	subtalar_angle_l	mtp_angle_l	lumbar_extension	lumbar_bending	lumbar_rotation
      2.43500000	      9.63009278	      4.78296838	     -2.00818444	      0.68200006	      0.93942846	     -0.01561562	    -12.86184441	     -8.24120631	     -1.48271446	    -47.88182838	      5.86475190	     -4.39828426	     52.04584630	      4.55553463	      7.53302910	    -12.25530683	    -10.63179595	      5.48137374	    -17.31009364	    111.89676335	    -16.83532918	     -8.19706761	      2.92837641
      2.44000000	      9.44985132	      4.84096183	     -2.11447443	      0.68737507	      0.93964515	     -0.01645871	    -11.66123293	     -8.39475764	     -1.06855584	    -49.66300226	      4.85871919	     -4.69471596	     52.09338177	      4.49526065	      7.63684617	    -12.38446323	    -10.84501460	      6.02522746	    -17.16846437	    111.83808833	    -16.65794636	     -8.29032804	      2.97664795
      2.44500000	      9.30001542	      4.88338108	     -2.21428614	      0.69275773	      0.93992660	     -0.01727518	    -10.52252752	     -8.51327109	     -0.68269104	    -51.33099683	      4.00414376	     -5.04980970	     51.98700755	      4.37265170	      7.72850556	    -12.50907548	    -11.00130987	      6.54769304	    -17.01471331	    111.77592254	    -16.51373467	     -8.36322261	      3.00232100
      2.45000000	      9.17329070	      4.90079282	     -2.30217049	      0.69812531	      0.94026398	     -0.01808774	     -9.43566032	     -8.59132575	     -0.33522379	    -52.88801563	      3.32748194	     -5.45098749	     51.74071775	      4.20943624	      7.79687171	    -12.61960501	    -11.12939172	      7.04245530	    -16.85410119	    111.71091046	    -16.39588043	     -8.40221547	      3.02351389
      2.45500000	      9.13261514	      4.94842037	     -2.37481668	      0.70353308	      0.94075440	     -0.01890055	     -8.48509039	     -8.70567550	     -0.08946865	    -54.31837032	      2.81088130	     -5.95936890	     51.47047410	      3.91553259	      7.91016990	    -12.70785538	    -11.18228341	      7.41708704	    -16.72131651	    111.66190984	    -16.36883298	     -8.47381990	      3.01236278
      2.46000000	      8.93311385	      4.88405246	     -2.40608598	      0.70876491	      0.94099433	     -0.01969089	     -7.34754680	     -8.65852763	      0.18226236	    -55.72166509	      2.56899498	     -6.28013649	     50.54466418	      3.87247514	      7.87346615	    -12.80247299	    -11.40037058	      8.02807663	    -16.45890119	    111.52530230	    -16.18774179	     -8.40875626	      2.98802004
      2.46500000	      8.83366818	      4.85646122	     -2.45965149	      0.71408107	      0.94142543	     -0.02045662	     -6.35934866	     -8.65683258	      0.39960415	    -56.99633931	      2.53431994	     -6.73055706	     48.94250326	      3.63254812	      7.90279219	    -12.82459370	    -11.43528818	      8.44214291	    -16.25556827	    111.34355527	    -16.10293734	     -8.38997614	      3.00545136
      2.47000000	      8.92582402	      4.80920280	     -2.55103596	      0.71943480	      0.94217694	     -0.02118136	     -5.62637271	     -8.64465666	      0.59493282	    -58.09341973	      2.49358181	     -7.37191539	     48.67222864	      3.13006586	      7.93879210	    -12.85717479	    -11.35620126	      8.72623156	    -16.32719246	    111.31023591	    -16.22565480	     -8.35578558	      3.02795225
      2.47500000	      8.81636020	      4.72917714	     -2.60282301	      0.72468340	      0.94262180	     -0.02190499	     -4.65156683	     -8.57258139	      0.76892065	    -59.20642529	      2.79499875	     -7.72344024	     46.08746829	      2.89811563	      7.91380864	    -12.87627191	    -11.38414148	      9.15529405	    -16.18671911	    111.07431465	    -16.13329137	     -8.27347618	      3.03359025
